<svg width="484" height="152" viewBox="0 0 484 152" fill="none" xmlns="http://www.w3.org/2000/svg">
<rect x="14" y="136" width="72" height="2" fill="black"/>
<rect x="7" y="120" width="8" height="32" rx="3" fill="#252521"/>
<rect x="85" y="120" width="8" height="32" rx="3" fill="#252521"/>
<path d="M94 34L5.00001 34L10.2922 3C10.424 1.89497 12.5216 0.0894432 13.5 0L85.5 0C86.7678 0.0586433 88.9449 1.86298 89.1488 3L94 34Z" fill="#E43825"/>
<path d="M79 30L21 30L22.3351 10C22.6117 6.87675 24.0304 6.0053 27 6L73 6C76.5372 6.03082 77.5876 6.86775 77.929 10L79 30Z" fill="url(#paint0_radial_193_71)"/>
<path d="M5.16211 44H94.4362L90.1191 117C89.9838 118.578 89.5212 119.009 88.0007 119H85.0007C84.2507 119.031 84.0214 119.24 84.0008 120V141C84.0146 142.637 83.5499 143.048 82.0007 143H18.0007C16.4866 143.031 16.0014 142.549 16.0008 141V120C15.9631 119.225 15.7303 119.018 15.0007 119H12.0007C11.0474 119.087 9.86101 117.912 9.87175 117L5.16211 44Z" fill="url(#paint1_linear_193_71)"/>
<path d="M96 44H4C2.34315 44 1 42.6569 1 41V37C1 35.3431 2.34314 34 4 34H96C97.6569 34 99 35.3431 99 37V41C99 42.6569 97.6569 44 96 44Z" fill="#E43925" stroke="black" stroke-width="0.2"/>
<path d="M42.6002 91.5576L46.7334 101.427C46.638 102.041 46.4401 102.196 45.8055 102.102L43.1063 100.921L41.7566 103.789H46.2273C46.591 103.931 46.7124 104.072 46.7334 104.463V114.248C46.6837 114.64 46.566 114.781 46.2273 114.923H41.6723C40.4019 114.752 39.5446 114.548 38.2982 113.236L31.4657 103.704C30.9405 102.797 30.9086 102.168 31.1282 100.921L33.9119 95.3534L31.0439 92.4011C30.9394 91.6804 31.0535 91.4062 31.55 91.1358H41.7566C42.2358 91.1213 42.4066 91.2297 42.6002 91.5576Z" fill="#FDFFFF"/>
<path d="M41.7566 103.789L43.1063 100.921L45.8055 102.102C46.4401 102.196 46.638 102.041 46.7334 101.427L42.6002 91.5576C42.4066 91.2297 42.2358 91.1213 41.7566 91.1358H31.55C31.0535 91.4062 30.9394 91.6804 31.0439 92.4011L33.9119 95.3534L31.1282 100.921M41.7566 103.789H46.2273C46.591 103.931 46.7124 104.072 46.7334 104.463V114.248C46.6837 114.64 46.566 114.781 46.2273 114.923H41.6723C40.4019 114.752 39.5446 114.548 38.2982 113.236L31.4657 103.704C30.9405 102.797 30.9086 102.168 31.1282 100.921M41.7566 103.789H34.418C33.9592 103.783 33.7368 103.713 33.4058 103.451L31.4657 101.849C31.2556 101.612 31.1893 101.397 31.1282 100.921" stroke="black"/>
<path d="M44.4125 80H55.8844C57.0197 80.1332 57.5444 80.38 58.2463 81.1809L60.5238 84.555L63.2231 83.2054C63.9839 83.2126 64.1444 83.3358 64.2353 84.0489L60.1864 93.7494C59.9424 94.118 59.7544 94.2028 59.3429 94.1712L50.4859 92.5685C49.9323 92.1188 49.876 91.8019 50.3172 91.2189L52.8477 89.9536L50.992 87.2543L47.3648 92.3154C46.9465 92.6395 46.684 92.6113 46.1839 92.3154L37.58 87.5917C37.262 87.2591 37.2733 87.0153 37.58 86.4951L40.8697 82.1088L41.2915 81.6027C42.3596 80.5903 43.0402 80.2357 44.4125 80Z" fill="#FDFFFF"/>
<path d="M50.992 87.2543L52.8477 89.9536L50.3172 91.2188C49.876 91.8019 49.9323 92.1188 50.4859 92.5685L59.3429 94.1712C59.7544 94.2028 59.9424 94.118 60.1864 93.7494L64.2353 84.0489C64.1444 83.3358 63.9839 83.2126 63.2231 83.2054L60.5238 84.555L58.2463 81.1809C57.5444 80.38 57.0197 80.1332 55.8844 80H44.4125C43.0402 80.2357 42.3596 80.5903 41.2915 81.6027M50.992 87.2543L47.3648 92.3154C46.9465 92.6395 46.684 92.6113 46.1839 92.3154L37.58 87.5917C37.262 87.2591 37.2733 87.0153 37.58 86.4951L40.8697 82.1088L41.2915 81.6027M50.992 87.2543L48.0397 83.0367C47.3342 82.213 46.8216 81.8936 45.6778 81.6027H41.2915" stroke="black"/>
<path d="M63.645 93.665C64.1366 93.4292 64.3945 93.4536 64.8259 93.7493L67.9043 99.3166C67.9224 99.3435 67.9403 99.3703 67.958 99.3969C68.1913 99.7466 68.3574 100.011 68.4931 100.264C69.2698 101.675 69.2464 102.718 67.7782 104.462L62.2953 112.476C61.1522 113.789 60.3338 114.28 58.5838 114.753H56.3063V117.368L56.1376 117.621C55.6905 118.012 55.4306 117.97 54.9567 117.621L48.799 110.704C48.3971 110.221 48.3879 109.926 48.799 109.355L54.788 101.088C55.396 100.364 55.727 100.366 56.3063 101.088V103.703H59.5961L56.7281 99.0635C56.2047 98.2987 56.2089 97.9431 56.8124 97.4608L63.645 93.665Z" fill="#FDFFFF"/>
<path d="M59.5961 103.703H56.3063V101.088C55.727 100.366 55.396 100.364 54.788 101.088L48.799 109.355C48.3879 109.926 48.3971 110.221 48.799 110.704L54.9567 117.621C55.4306 117.97 55.6905 118.012 56.1376 117.621L56.3063 117.368V114.753H58.5838C60.3338 114.28 61.1522 113.789 62.2953 112.476L67.7782 104.462C69.5546 102.352 69.2159 101.269 67.9043 99.3166M59.5961 103.703H65.8381C66.1294 103.689 66.2794 103.64 66.5129 103.45L68.7061 101.425C68.8128 101.256 68.8169 101.14 68.7904 100.919C68.5792 100.369 68.3691 100.009 67.9043 99.3166M59.5961 103.703L56.7281 99.0635C56.2047 98.2987 56.2089 97.9431 56.8124 97.4608L63.645 93.665C64.1366 93.4292 64.3945 93.4536 64.8259 93.7493L67.9043 99.3166" stroke="black"/>
<path fill-rule="evenodd" clip-rule="evenodd" d="M23 50C20.2386 50 18 52.2386 18 55V66C18 68.7614 20.2386 71 23 71H76C78.7614 71 81 68.7614 81 66V55C81 52.2386 78.7614 50 76 50H23ZM20.3573 56.2727V65H22.2025V62.1705H23.7536C24.4241 62.1705 24.9951 62.0469 25.4667 61.7997C25.9411 61.5526 26.3033 61.2074 26.5533 60.7642C26.8033 60.321 26.9283 59.8097 26.9283 59.2301C26.9283 58.6506 26.8047 58.1392 26.5576 57.696C26.3133 57.25 25.9581 56.902 25.4922 56.652C25.0263 56.3991 24.4624 56.2727 23.8005 56.2727H20.3573ZM22.2025 60.6918H23.4553C23.8104 60.6918 24.103 60.6307 24.3331 60.5085C24.5661 60.3835 24.7394 60.2116 24.853 59.9929C24.9695 59.7713 25.0277 59.517 25.0277 59.2301C25.0277 58.9403 24.9695 58.6875 24.853 58.4716C24.7394 58.2528 24.5661 58.0838 24.3331 57.9645C24.1002 57.8423 23.8047 57.7812 23.4468 57.7812H22.2025V60.6918ZM27.9228 56.2727V65H33.5095V63.4787H29.768V56.2727H27.9228ZM34.2771 65H36.2543L36.9017 63.0099H40.0528L40.6989 65H42.6762L39.6677 56.2727H37.2898L34.2771 65ZM39.5851 61.5696L38.5129 58.267H38.4447L37.3703 61.5696H39.5851ZM38.7302 53.4901L37.8268 55.429H39.1094L40.4092 53.4901H38.7302ZM47.6189 57.9815C47.8774 58.1719 48.0237 58.4389 48.0578 58.7827H49.8263C49.8177 58.2628 49.6785 57.8054 49.4086 57.4105C49.1388 57.0156 48.7609 56.7074 48.2751 56.4858C47.7922 56.2642 47.2268 56.1534 46.5791 56.1534C45.9427 56.1534 45.3746 56.2642 44.8746 56.4858C44.3746 56.7074 43.9811 57.0156 43.6942 57.4105C43.4101 57.8054 43.2694 58.267 43.2723 58.7955C43.2694 59.4403 43.4811 59.9531 43.9072 60.3338C44.3334 60.7145 44.9143 60.9943 45.6501 61.1733L46.6004 61.4119C46.9186 61.4886 47.1871 61.5739 47.4058 61.6676C47.6274 61.7614 47.795 61.875 47.9086 62.0085C48.0251 62.142 48.0834 62.3068 48.0834 62.5028C48.0834 62.7131 48.0194 62.8991 47.8916 63.0611C47.7638 63.223 47.5834 63.3494 47.3504 63.4403C47.1203 63.5312 46.849 63.5767 46.5365 63.5767C46.2183 63.5767 45.9328 63.5284 45.6799 63.4318C45.4299 63.3324 45.2297 63.1861 45.0791 62.9929C44.9314 62.7969 44.8476 62.5526 44.8277 62.2599H43.0422C43.0564 62.8878 43.2084 63.4148 43.4981 63.8409C43.7907 64.2642 44.197 64.5838 44.7169 64.7997C45.2396 65.0156 45.8532 65.1236 46.5578 65.1236C47.268 65.1236 47.8746 65.017 48.3774 64.804C48.8831 64.5881 49.2694 64.2855 49.5365 63.8963C49.8064 63.5043 49.9427 63.0412 49.9456 62.5071C49.9427 62.1435 49.876 61.821 49.7453 61.5398C49.6174 61.2585 49.4371 61.0142 49.2041 60.8068C48.9711 60.5994 48.6956 60.4247 48.3774 60.2827C48.0592 60.1406 47.7098 60.027 47.3291 59.9418L46.545 59.7543C46.3547 59.7116 46.1757 59.6605 46.0081 59.6009C45.8405 59.5384 45.6927 59.4659 45.5649 59.3835C45.4371 59.2983 45.3362 59.1974 45.2623 59.081C45.1913 58.9645 45.1586 58.8281 45.1643 58.6719C45.1643 58.4844 45.2183 58.3168 45.3263 58.169C45.4371 58.0213 45.5961 57.9062 45.8035 57.8239C46.0109 57.7386 46.2652 57.696 46.5663 57.696C47.0095 57.696 47.3603 57.7912 47.6189 57.9815ZM50.6503 56.2727V57.794H53.3222V65H55.146V57.794H57.8179V56.2727H50.6503ZM60.6395 65V56.2727H58.7943V65H60.6395ZM67.7874 59.3281H69.6539C69.5942 58.8224 69.4579 58.3736 69.2448 57.9815C69.0346 57.5895 68.7618 57.2585 68.4266 56.9886C68.0914 56.7159 67.7064 56.5085 67.2718 56.3665C66.84 56.2244 66.3712 56.1534 65.8655 56.1534C65.0985 56.1534 64.4081 56.3295 63.7945 56.6818C63.1809 57.0312 62.6951 57.5398 62.3371 58.2074C61.9792 58.875 61.8002 59.6847 61.8002 60.6364C61.8002 61.5852 61.9763 62.3935 62.3286 63.0611C62.6837 63.7287 63.1667 64.2386 63.7775 64.5909C64.3911 64.9432 65.0871 65.1193 65.8655 65.1193C66.4252 65.1193 66.9266 65.0355 67.3698 64.8679C67.8158 64.6974 68.1993 64.4673 68.5204 64.1776C68.8442 63.8849 69.1013 63.554 69.2917 63.1847C69.4849 62.8125 69.6056 62.4261 69.6539 62.0256L67.7874 62.017C67.7448 62.25 67.6681 62.4574 67.5573 62.6392C67.4493 62.821 67.313 62.9759 67.1482 63.1037C66.9834 63.2287 66.7945 63.3239 66.5814 63.3892C66.3712 63.4545 66.1425 63.4872 65.8954 63.4872C65.455 63.4872 65.0672 63.3793 64.732 63.1634C64.3968 62.9474 64.1354 62.6278 63.9479 62.2045C63.7633 61.7812 63.6709 61.2585 63.6709 60.6364C63.6709 60.0312 63.7633 59.517 63.9479 59.0938C64.1326 58.6676 64.3925 58.3438 64.7277 58.1222C65.063 57.8977 65.4564 57.7855 65.9081 57.7855C66.1581 57.7855 66.3897 57.821 66.6027 57.892C66.8187 57.9631 67.009 58.0653 67.1738 58.1989C67.3385 58.3324 67.4735 58.4943 67.5786 58.6847C67.6837 58.8722 67.7533 59.0866 67.7874 59.3281ZM78.2517 63.0653C78.6125 62.3977 78.7929 61.5881 78.7929 60.6364C78.7929 59.6847 78.6125 58.875 78.2517 58.2074C77.8938 57.5398 77.4051 57.0312 76.7858 56.6818C76.1693 56.3295 75.4762 56.1534 74.7063 56.1534C73.9307 56.1534 73.2347 56.3295 72.6182 56.6818C72.0017 57.0312 71.5145 57.5398 71.1566 58.2074C70.7986 58.875 70.6196 59.6847 70.6196 60.6364C70.6196 61.5852 70.7986 62.3935 71.1566 63.0611C71.5145 63.7287 72.0017 64.2386 72.6182 64.5909C73.2347 64.9432 73.9307 65.1193 74.7063 65.1193C75.4762 65.1193 76.1693 64.9446 76.7858 64.5952C77.4051 64.2429 77.8938 63.733 78.2517 63.0653ZM76.6452 59.0767C76.8299 59.5 76.9222 60.0199 76.9222 60.6364C76.9222 61.2528 76.8299 61.7727 76.6452 62.196C76.4634 62.6193 76.2063 62.9403 75.8739 63.1591C75.5415 63.3778 75.1523 63.4872 74.7063 63.4872C74.2603 63.4872 73.871 63.3778 73.5387 63.1591C73.2063 62.9403 72.9478 62.6193 72.7631 62.196C72.5813 61.7727 72.4904 61.2528 72.4904 60.6364C72.4904 60.0199 72.5813 59.5 72.7631 59.0767C72.9478 58.6534 73.2063 58.3324 73.5387 58.1136C73.871 57.8949 74.2603 57.7855 74.7063 57.7855C75.1523 57.7855 75.5415 57.8949 75.8739 58.1136C76.2063 58.3324 76.4634 58.6534 76.6452 59.0767Z" fill="#FDFFFF"/>
<rect x="142" y="136" width="72" height="2" fill="black"/>
<rect x="135" y="120" width="8" height="32" rx="3" fill="#252521"/>
<rect x="213" y="120" width="8" height="32" rx="3" fill="#252521"/>
<path d="M222 34L133 34L138.292 3C138.424 1.89497 140.522 0.0894432 141.5 0L213.5 0C214.768 0.0586433 216.945 1.86298 217.149 3L222 34Z" fill="#00B1EF"/>
<path d="M207 30L149 30L150.335 10C150.612 6.87675 152.03 6.0053 155 6L201 6C204.537 6.03082 205.588 6.86775 205.929 10L207 30Z" fill="url(#paint2_radial_193_71)"/>
<path d="M133.162 44H222.436L218.119 117C217.984 118.578 217.521 119.009 216.001 119H213.001C212.251 119.031 212.021 119.24 212.001 120V141C212.015 142.637 211.55 143.048 210.001 143H146.001C144.487 143.031 144.001 142.549 144.001 141V120C143.963 119.225 143.73 119.018 143.001 119H140.001C139.047 119.087 137.861 117.912 137.872 117L133.162 44Z" fill="url(#paint3_linear_193_71)"/>
<path d="M224 44H132C130.343 44 129 42.6569 129 41V37C129 35.3431 130.343 34 132 34H224C225.657 34 227 35.3431 227 37V41C227 42.6569 225.657 44 224 44Z" fill="#00B1EF" stroke="black" stroke-width="0.2"/>
<path d="M170.6 91.5576L174.733 101.427C174.638 102.041 174.44 102.196 173.806 102.102L171.106 100.921L169.757 103.789H174.227C174.591 103.931 174.712 104.072 174.733 104.463V114.248C174.684 114.64 174.566 114.781 174.227 114.923H169.672C168.402 114.752 167.545 114.548 166.298 113.236L159.466 103.704C158.94 102.797 158.909 102.168 159.128 100.921L161.912 95.3534L159.044 92.4011C158.939 91.6804 159.053 91.4062 159.55 91.1358H169.757C170.236 91.1213 170.407 91.2297 170.6 91.5576Z" fill="#FDFFFF"/>
<path d="M169.757 103.789L171.106 100.921L173.806 102.102C174.44 102.196 174.638 102.041 174.733 101.427L170.6 91.5576C170.407 91.2297 170.236 91.1213 169.757 91.1358H159.55C159.053 91.4062 158.939 91.6804 159.044 92.4011L161.912 95.3534L159.128 100.921M169.757 103.789H174.227C174.591 103.931 174.712 104.072 174.733 104.463V114.248C174.684 114.64 174.566 114.781 174.227 114.923H169.672C168.402 114.752 167.545 114.548 166.298 113.236L159.466 103.704C158.94 102.797 158.909 102.168 159.128 100.921M169.757 103.789H162.418C161.959 103.783 161.737 103.713 161.406 103.451L159.466 101.849C159.256 101.612 159.189 101.397 159.128 100.921" stroke="black"/>
<path d="M172.413 80H183.884C185.02 80.1332 185.544 80.38 186.246 81.1809L188.524 84.555L191.223 83.2054C191.984 83.2126 192.144 83.3358 192.235 84.0489L188.186 93.7494C187.942 94.118 187.754 94.2028 187.343 94.1712L178.486 92.5685C177.932 92.1188 177.876 91.8019 178.317 91.2189L180.848 89.9536L178.992 87.2543L175.365 92.3154C174.946 92.6395 174.684 92.6113 174.184 92.3154L165.58 87.5917C165.262 87.2591 165.273 87.0153 165.58 86.4951L168.87 82.1088L169.291 81.6027C170.36 80.5903 171.04 80.2357 172.413 80Z" fill="#FDFFFF"/>
<path d="M178.992 87.2543L180.848 89.9536L178.317 91.2188C177.876 91.8019 177.932 92.1188 178.486 92.5685L187.343 94.1712C187.754 94.2028 187.942 94.118 188.186 93.7494L192.235 84.0489C192.144 83.3358 191.984 83.2126 191.223 83.2054L188.524 84.555L186.246 81.1809C185.544 80.38 185.02 80.1332 183.884 80H172.413C171.04 80.2357 170.36 80.5903 169.291 81.6027M178.992 87.2543L175.365 92.3154C174.946 92.6395 174.684 92.6113 174.184 92.3154L165.58 87.5917C165.262 87.2591 165.273 87.0153 165.58 86.4951L168.87 82.1088L169.291 81.6027M178.992 87.2543L176.04 83.0367C175.334 82.213 174.822 81.8936 173.678 81.6027H169.291" stroke="black"/>
<path d="M191.645 93.665C192.137 93.4292 192.395 93.4536 192.826 93.7493L195.904 99.3166C195.922 99.3435 195.94 99.3703 195.958 99.3969C196.191 99.7466 196.357 100.011 196.493 100.264C197.27 101.675 197.246 102.718 195.778 104.462L190.295 112.476C189.152 113.789 188.334 114.28 186.584 114.753H184.306V117.368L184.138 117.621C183.691 118.012 183.431 117.97 182.957 117.621L176.799 110.704C176.397 110.221 176.388 109.926 176.799 109.355L182.788 101.088C183.396 100.364 183.727 100.366 184.306 101.088V103.703H187.596L184.728 99.0635C184.205 98.2987 184.209 97.9431 184.812 97.4608L191.645 93.665Z" fill="#FDFFFF"/>
<path d="M187.596 103.703H184.306V101.088C183.727 100.366 183.396 100.364 182.788 101.088L176.799 109.355C176.388 109.926 176.397 110.221 176.799 110.704L182.957 117.621C183.431 117.97 183.691 118.012 184.138 117.621L184.306 117.368V114.753H186.584C188.334 114.28 189.152 113.789 190.295 112.476L195.778 104.462C197.555 102.352 197.216 101.269 195.904 99.3166M187.596 103.703H193.838C194.129 103.689 194.279 103.64 194.513 103.45L196.706 101.425C196.813 101.256 196.817 101.14 196.79 100.919C196.579 100.369 196.369 100.009 195.904 99.3166M187.596 103.703L184.728 99.0635C184.205 98.2987 184.209 97.9431 184.812 97.4608L191.645 93.665C192.137 93.4292 192.395 93.4536 192.826 93.7493L195.904 99.3166" stroke="black"/>
<path fill-rule="evenodd" clip-rule="evenodd" d="M151 50C148.239 50 146 52.2386 146 55V66C146 68.7614 148.239 71 151 71H204C206.761 71 209 68.7614 209 66V55C209 52.2386 206.761 50 204 50H151ZM156.89 55.8182V66H159.043V62.6989H160.853C161.635 62.6989 162.301 62.5547 162.851 62.2663C163.405 61.978 163.827 61.5753 164.119 61.0582C164.411 60.5412 164.556 59.9446 164.556 59.2685C164.556 58.5923 164.412 57.9957 164.124 57.4787C163.839 56.9583 163.425 56.5523 162.881 56.2607C162.337 55.9657 161.68 55.8182 160.907 55.8182H156.89ZM159.043 60.9737H160.505C160.919 60.9737 161.26 60.9025 161.529 60.7599C161.801 60.6141 162.003 60.4136 162.135 60.1584C162.271 59.8999 162.339 59.6032 162.339 59.2685C162.339 58.9304 162.271 58.6354 162.135 58.3835C162.003 58.1283 161.801 57.9311 161.529 57.7919C161.257 57.6494 160.912 57.5781 160.495 57.5781H159.043V60.9737ZM163.989 66H166.296L167.051 63.6783H170.727L171.481 66H173.788L170.278 55.8182H167.504L163.989 66ZM170.182 61.9979L168.931 58.1449H168.851L167.598 61.9979H170.182ZM174.776 55.8182V66H176.928V62.6989H178.738C179.52 62.6989 180.186 62.5547 180.737 62.2663C181.29 61.978 181.713 61.5753 182.004 61.0582C182.296 60.5412 182.442 59.9446 182.442 59.2685C182.442 58.5923 182.298 57.9957 182.009 57.4787C181.724 56.9583 181.31 56.5523 180.766 56.2607C180.223 55.9657 179.565 55.8182 178.793 55.8182H174.776ZM176.928 60.9737H178.39C178.804 60.9737 179.146 60.9025 179.414 60.7599C179.686 60.6141 179.888 60.4136 180.021 60.1584C180.156 59.8999 180.224 59.6032 180.224 59.2685C180.224 58.9304 180.156 58.6354 180.021 58.3835C179.888 58.1283 179.686 57.9311 179.414 57.7919C179.142 57.6494 178.798 57.5781 178.38 57.5781H176.928V60.9737ZM183.602 55.8182V66H190.483V64.2251H185.755V61.794H190.11V60.0192H185.755V57.593H190.463V55.8182H183.602ZM191.936 55.8182V66H198.454V64.2251H194.089V55.8182H191.936Z" fill="#FDFFFF"/>
<rect x="270" y="136" width="72" height="2" fill="black"/>
<rect x="263" y="120" width="8" height="32" rx="3" fill="#252521"/>
<rect x="341" y="120" width="8" height="32" rx="3" fill="#252521"/>
<path d="M350 34L261 34L266.292 3C266.424 1.89497 268.522 0.0894432 269.5 0L341.5 0C342.768 0.0586433 344.945 1.86298 345.149 3L350 34Z" fill="#FFC20F"/>
<path d="M335 30L277 30L278.335 10C278.612 6.87675 280.03 6.0053 283 6L329 6C332.537 6.03082 333.588 6.86775 333.929 10L335 30Z" fill="url(#paint4_radial_193_71)"/>
<path d="M261.162 44H350.436L346.119 117C345.984 118.578 345.521 119.009 344.001 119H341.001C340.251 119.031 340.021 119.24 340.001 120V141C340.015 142.637 339.55 143.048 338.001 143H274.001C272.487 143.031 272.001 142.549 272.001 141V120C271.963 119.225 271.73 119.018 271.001 119H268.001C267.047 119.087 265.861 117.912 265.872 117L261.162 44Z" fill="url(#paint5_linear_193_71)"/>
<path d="M352 44H260C258.343 44 257 42.6569 257 41V37C257 35.3431 258.343 34 260 34H352C353.657 34 355 35.3431 355 37V41C355 42.6569 353.657 44 352 44Z" fill="#FFC20F" stroke="black" stroke-width="0.2"/>
<path d="M298.6 91.5576L302.733 101.427C302.638 102.041 302.44 102.196 301.806 102.102L299.106 100.921L297.757 103.789H302.227C302.591 103.931 302.712 104.072 302.733 104.463V114.248C302.684 114.64 302.566 114.781 302.227 114.923H297.672C296.402 114.752 295.545 114.548 294.298 113.236L287.466 103.704C286.94 102.797 286.909 102.168 287.128 100.921L289.912 95.3534L287.044 92.4011C286.939 91.6804 287.053 91.4062 287.55 91.1358H297.757C298.236 91.1213 298.407 91.2297 298.6 91.5576Z" fill="#FDFFFF"/>
<path d="M297.757 103.789L299.106 100.921L301.806 102.102C302.44 102.196 302.638 102.041 302.733 101.427L298.6 91.5576C298.407 91.2297 298.236 91.1213 297.757 91.1358H287.55C287.053 91.4062 286.939 91.6804 287.044 92.4011L289.912 95.3534L287.128 100.921M297.757 103.789H302.227C302.591 103.931 302.712 104.072 302.733 104.463V114.248C302.684 114.64 302.566 114.781 302.227 114.923H297.672C296.402 114.752 295.545 114.548 294.298 113.236L287.466 103.704C286.94 102.797 286.909 102.168 287.128 100.921M297.757 103.789H290.418C289.959 103.783 289.737 103.713 289.406 103.451L287.466 101.849C287.256 101.612 287.189 101.397 287.128 100.921" stroke="black"/>
<path d="M300.413 80H311.884C313.02 80.1332 313.544 80.38 314.246 81.1809L316.524 84.555L319.223 83.2054C319.984 83.2126 320.144 83.3358 320.235 84.0489L316.186 93.7494C315.942 94.118 315.754 94.2028 315.343 94.1712L306.486 92.5685C305.932 92.1188 305.876 91.8019 306.317 91.2189L308.848 89.9536L306.992 87.2543L303.365 92.3154C302.946 92.6395 302.684 92.6113 302.184 92.3154L293.58 87.5917C293.262 87.2591 293.273 87.0153 293.58 86.4951L296.87 82.1088L297.291 81.6027C298.36 80.5903 299.04 80.2357 300.413 80Z" fill="#FDFFFF"/>
<path d="M306.992 87.2543L308.848 89.9536L306.317 91.2188C305.876 91.8019 305.932 92.1188 306.486 92.5685L315.343 94.1712C315.754 94.2028 315.942 94.118 316.186 93.7494L320.235 84.0489C320.144 83.3358 319.984 83.2126 319.223 83.2054L316.524 84.555L314.246 81.1809C313.544 80.38 313.02 80.1332 311.884 80H300.413C299.04 80.2357 298.36 80.5903 297.291 81.6027M306.992 87.2543L303.365 92.3154C302.946 92.6395 302.684 92.6113 302.184 92.3154L293.58 87.5917C293.262 87.2591 293.273 87.0153 293.58 86.4951L296.87 82.1088L297.291 81.6027M306.992 87.2543L304.04 83.0367C303.334 82.213 302.822 81.8936 301.678 81.6027H297.291" stroke="black"/>
<path d="M319.645 93.665C320.137 93.4292 320.395 93.4536 320.826 93.7493L323.904 99.3166C323.922 99.3435 323.94 99.3703 323.958 99.3969C324.191 99.7466 324.357 100.011 324.493 100.264C325.27 101.675 325.246 102.718 323.778 104.462L318.295 112.476C317.152 113.789 316.334 114.28 314.584 114.753H312.306V117.368L312.138 117.621C311.691 118.012 311.431 117.97 310.957 117.621L304.799 110.704C304.397 110.221 304.388 109.926 304.799 109.355L310.788 101.088C311.396 100.364 311.727 100.366 312.306 101.088V103.703H315.596L312.728 99.0635C312.205 98.2987 312.209 97.9431 312.812 97.4608L319.645 93.665Z" fill="#FDFFFF"/>
<path d="M315.596 103.703H312.306V101.088C311.727 100.366 311.396 100.364 310.788 101.088L304.799 109.355C304.388 109.926 304.397 110.221 304.799 110.704L310.957 117.621C311.431 117.97 311.691 118.012 312.138 117.621L312.306 117.368V114.753H314.584C316.334 114.28 317.152 113.789 318.295 112.476L323.778 104.462C325.555 102.352 325.216 101.269 323.904 99.3166M315.596 103.703H321.838C322.129 103.689 322.279 103.64 322.513 103.45L324.706 101.425C324.813 101.256 324.817 101.14 324.79 100.919C324.579 100.369 324.369 100.009 323.904 99.3166M315.596 103.703L312.728 99.0635C312.205 98.2987 312.209 97.9431 312.812 97.4608L319.645 93.665C320.137 93.4292 320.395 93.4536 320.826 93.7493L323.904 99.3166" stroke="black"/>
<path fill-rule="evenodd" clip-rule="evenodd" d="M279 50C276.239 50 274 52.2386 274 55V66C274 68.7614 276.239 71 279 71H332C334.761 71 337 68.7614 337 66V55C337 52.2386 334.761 50 332 50H279ZM285.563 55.8182H282.908V66H284.996V59.348H285.08L287.715 65.9503H289.137L291.772 59.3729H291.857V66H293.945V55.8182H291.29L288.486 62.6591H288.367L285.563 55.8182ZM295.48 55.8182V66H302.361V64.2251H297.633V61.794H301.988V60.0192H297.633V57.593H302.341V55.8182H295.48ZM303.427 55.8182V57.593H306.544V66H308.672V57.593H311.789V55.8182H303.427ZM311.132 66H313.439L314.194 63.6783H317.871L318.624 66H320.931L317.421 55.8182H314.647L311.132 66ZM317.325 61.9979L316.074 58.1449H315.994L314.741 61.9979H317.325ZM321.919 55.8182V66H328.436V64.2251H324.071V55.8182H321.919Z" fill="#FDFFFF"/>
<rect x="398" y="136" width="72" height="2" fill="black"/>
<rect x="391" y="120" width="8" height="32" rx="3" fill="#252521"/>
<rect x="469" y="120" width="8" height="32" rx="3" fill="#252521"/>
<path d="M478 34L389 34L394.292 3C394.424 1.89497 396.522 0.0894432 397.5 0L469.5 0C470.768 0.0586433 472.945 1.86298 473.149 3L478 34Z" fill="#80C141"/>
<path d="M463 30L405 30L406.335 10C406.612 6.87675 408.03 6.0053 411 6L457 6C460.537 6.03082 461.588 6.86775 461.929 10L463 30Z" fill="url(#paint6_radial_193_71)"/>
<path d="M389.162 44H478.436L474.119 117C473.984 118.578 473.521 119.009 472.001 119H469.001C468.251 119.031 468.021 119.24 468.001 120V141C468.015 142.637 467.55 143.048 466.001 143H402.001C400.487 143.031 400.001 142.549 400.001 141V120C399.963 119.225 399.73 119.018 399.001 119H396.001C395.047 119.087 393.861 117.912 393.872 117L389.162 44Z" fill="url(#paint7_linear_193_71)"/>
<path d="M480 44H388C386.343 44 385 42.6569 385 41V37C385 35.3431 386.343 34 388 34H480C481.657 34 483 35.3431 483 37V41C483 42.6569 481.657 44 480 44Z" fill="#80C141" stroke="black" stroke-width="0.2"/>
<path d="M426.6 91.5576L430.733 101.427C430.638 102.041 430.44 102.196 429.806 102.102L427.106 100.921L425.757 103.789H430.227C430.591 103.931 430.712 104.072 430.733 104.463V114.248C430.684 114.64 430.566 114.781 430.227 114.923H425.672C424.402 114.752 423.545 114.548 422.298 113.236L415.466 103.704C414.94 102.797 414.909 102.168 415.128 100.921L417.912 95.3534L415.044 92.4011C414.939 91.6804 415.053 91.4062 415.55 91.1358H425.757C426.236 91.1213 426.407 91.2297 426.6 91.5576Z" fill="#FDFFFF"/>
<path d="M425.757 103.789L427.106 100.921L429.806 102.102C430.44 102.196 430.638 102.041 430.733 101.427L426.6 91.5576C426.407 91.2297 426.236 91.1213 425.757 91.1358H415.55C415.053 91.4062 414.939 91.6804 415.044 92.4011L417.912 95.3534L415.128 100.921M425.757 103.789H430.227C430.591 103.931 430.712 104.072 430.733 104.463V114.248C430.684 114.64 430.566 114.781 430.227 114.923H425.672C424.402 114.752 423.545 114.548 422.298 113.236L415.466 103.704C414.94 102.797 414.909 102.168 415.128 100.921M425.757 103.789H418.418C417.959 103.783 417.737 103.713 417.406 103.451L415.466 101.849C415.256 101.612 415.189 101.397 415.128 100.921" stroke="black"/>
<path d="M428.413 80H439.884C441.02 80.1332 441.544 80.38 442.246 81.1809L444.524 84.555L447.223 83.2054C447.984 83.2126 448.144 83.3358 448.235 84.0489L444.186 93.7494C443.942 94.118 443.754 94.2028 443.343 94.1712L434.486 92.5685C433.932 92.1188 433.876 91.8019 434.317 91.2189L436.848 89.9536L434.992 87.2543L431.365 92.3154C430.946 92.6395 430.684 92.6113 430.184 92.3154L421.58 87.5917C421.262 87.2591 421.273 87.0153 421.58 86.4951L424.87 82.1088L425.291 81.6027C426.36 80.5903 427.04 80.2357 428.413 80Z" fill="#FDFFFF"/>
<path d="M434.992 87.2543L436.848 89.9536L434.317 91.2188C433.876 91.8019 433.932 92.1188 434.486 92.5685L443.343 94.1712C443.754 94.2028 443.942 94.118 444.186 93.7494L448.235 84.0489C448.144 83.3358 447.984 83.2126 447.223 83.2054L444.524 84.555L442.246 81.1809C441.544 80.38 441.02 80.1332 439.884 80H428.413C427.04 80.2357 426.36 80.5903 425.291 81.6027M434.992 87.2543L431.365 92.3154C430.946 92.6395 430.684 92.6113 430.184 92.3154L421.58 87.5917C421.262 87.2591 421.273 87.0153 421.58 86.4951L424.87 82.1088L425.291 81.6027M434.992 87.2543L432.04 83.0367C431.334 82.213 430.822 81.8936 429.678 81.6027H425.291" stroke="black"/>
<path d="M447.645 93.665C448.137 93.4292 448.395 93.4536 448.826 93.7493L451.904 99.3166C451.922 99.3435 451.94 99.3703 451.958 99.3969C452.191 99.7466 452.357 100.011 452.493 100.264C453.27 101.675 453.246 102.718 451.778 104.462L446.295 112.476C445.152 113.789 444.334 114.28 442.584 114.753H440.306V117.368L440.138 117.621C439.691 118.012 439.431 117.97 438.957 117.621L432.799 110.704C432.397 110.221 432.388 109.926 432.799 109.355L438.788 101.088C439.396 100.364 439.727 100.366 440.306 101.088V103.703H443.596L440.728 99.0635C440.205 98.2987 440.209 97.9431 440.812 97.4608L447.645 93.665Z" fill="#FDFFFF"/>
<path d="M443.596 103.703H440.306V101.088C439.727 100.366 439.396 100.364 438.788 101.088L432.799 109.355C432.388 109.926 432.397 110.221 432.799 110.704L438.957 117.621C439.431 117.97 439.691 118.012 440.138 117.621L440.306 117.368V114.753H442.584C444.334 114.28 445.152 113.789 446.295 112.476L451.778 104.462C453.555 102.352 453.216 101.269 451.904 99.3166M443.596 103.703H449.838C450.129 103.689 450.279 103.64 450.513 103.45L452.706 101.425C452.813 101.256 452.817 101.14 452.79 100.919C452.579 100.369 452.369 100.009 451.904 99.3166M443.596 103.703L440.728 99.0635C440.205 98.2987 440.209 97.9431 440.812 97.4608L447.645 93.665C448.137 93.4292 448.395 93.4536 448.826 93.7493L451.904 99.3166" stroke="black"/>
<path fill-rule="evenodd" clip-rule="evenodd" d="M407 50C404.239 50 402 52.2386 402 55V66C402 68.7614 404.239 71 407 71H460C462.761 71 465 68.7614 465 66V55C465 52.2386 462.761 50 460 50H407ZM416.801 63.554L414.34 55.8182H411.949L415.464 66H418.238L421.748 55.8182H419.361L416.895 63.554H416.801ZM424.888 66V55.8182H422.735V66H424.888ZM426.421 66H430.03C431.065 66 431.953 65.7962 432.695 65.3885C433.441 64.9808 434.013 64.3958 434.41 63.6335C434.811 62.8712 435.012 61.9598 435.012 60.8991C435.012 59.8419 434.811 58.9337 434.41 58.1747C434.013 57.4157 433.444 56.834 432.705 56.4297C431.966 56.022 431.084 55.8182 430.06 55.8182H426.421V66ZM429.941 64.1555H428.574V57.6626H429.946C430.582 57.6626 431.118 57.7753 431.552 58.0007C431.986 58.2261 432.312 58.5774 432.531 59.0547C432.753 59.532 432.864 60.1468 432.864 60.8991C432.864 61.6581 432.753 62.2779 432.531 62.7585C432.312 63.2358 431.984 63.5888 431.547 63.8175C431.113 64.0429 430.577 64.1555 429.941 64.1555ZM436.369 55.8182V66H438.521V62.3906H440.093L442.021 66H444.398L442.237 62.0444C442.269 62.031 442.299 62.0171 442.33 62.0028C442.883 61.7443 443.306 61.3731 443.597 60.8892C443.889 60.402 444.035 59.8203 444.035 59.1442C444.035 58.4714 443.891 57.8864 443.602 57.3892C443.317 56.8887 442.901 56.5026 442.354 56.2308C441.811 55.9557 441.155 55.8182 440.386 55.8182H436.369ZM438.521 60.6605H439.983C440.394 60.6605 440.735 60.6042 441.007 60.4915C441.279 60.3788 441.481 60.2098 441.614 59.9844C441.75 59.759 441.817 59.4789 441.817 59.1442C441.817 58.8061 441.75 58.5211 441.614 58.2891C441.481 58.0571 441.277 57.8814 441.002 57.7621C440.73 57.6394 440.387 57.5781 439.973 57.5781H438.521V60.6605ZM454.043 63.7429C454.464 62.964 454.675 62.0194 454.675 60.9091C454.675 59.7988 454.464 58.8542 454.043 58.0753C453.626 57.2964 453.056 56.7031 452.333 56.2955C451.614 55.8845 450.805 55.679 449.907 55.679C449.002 55.679 448.19 55.8845 447.471 56.2955C446.752 56.7031 446.183 57.2964 445.766 58.0753C445.348 58.8542 445.139 59.7988 445.139 60.9091C445.139 62.0161 445.348 62.959 445.766 63.7379C446.183 64.5168 446.752 65.1117 447.471 65.5227C448.19 65.9337 449.002 66.1392 449.907 66.1392C450.805 66.1392 451.614 65.9354 452.333 65.5277C453.056 65.1167 453.626 64.5218 454.043 63.7429ZM452.169 59.0895C452.384 59.5833 452.492 60.1899 452.492 60.9091C452.492 61.6283 452.384 62.2348 452.169 62.7287C451.957 63.2225 451.657 63.5971 451.269 63.8523C450.881 64.1075 450.427 64.2351 449.907 64.2351C449.387 64.2351 448.932 64.1075 448.545 63.8523C448.157 63.5971 447.855 63.2225 447.64 62.7287C447.428 62.2348 447.322 61.6283 447.322 60.9091C447.322 60.1899 447.428 59.5833 447.64 59.0895C447.855 58.5956 448.157 58.2211 448.545 57.9659C448.932 57.7107 449.387 57.5831 449.907 57.5831C450.427 57.5831 450.881 57.7107 451.269 57.9659C451.657 58.2211 451.957 58.5956 452.169 59.0895Z" fill="#FDFFFF"/>
<defs>
<radialGradient id="paint0_radial_193_71" cx="0" cy="0" r="1" gradientUnits="userSpaceOnUse" gradientTransform="translate(50.4915 30) rotate(-91.1733) scale(24.005 58.011)">
<stop stop-color="#E43925"/>
<stop offset="0.985215" stop-color="#BD2327"/>
</radialGradient>
<linearGradient id="paint1_linear_193_71" x1="49.7507" y1="26" x2="49.7507" y2="143" gradientUnits="userSpaceOnUse">
<stop stop-color="#BD2327"/>
<stop offset="0.121249" stop-color="#E43925"/>
</linearGradient>
<radialGradient id="paint2_radial_193_71" cx="0" cy="0" r="1" gradientUnits="userSpaceOnUse" gradientTransform="translate(178.492 30) rotate(-91.1733) scale(24.005 58.011)">
<stop stop-color="#00B1EF"/>
<stop offset="0.985215" stop-color="#0090C5"/>
</radialGradient>
<linearGradient id="paint3_linear_193_71" x1="177.751" y1="26" x2="177.751" y2="143" gradientUnits="userSpaceOnUse">
<stop stop-color="#0090C5"/>
<stop offset="0.121249" stop-color="#00B1EF"/>
</linearGradient>
<radialGradient id="paint4_radial_193_71" cx="0" cy="0" r="1" gradientUnits="userSpaceOnUse" gradientTransform="translate(306.492 30) rotate(-91.1733) scale(24.005 58.011)">
<stop stop-color="#FFC20F"/>
<stop offset="0.985215" stop-color="#E69C15"/>
</radialGradient>
<linearGradient id="paint5_linear_193_71" x1="305.751" y1="26" x2="305.751" y2="143" gradientUnits="userSpaceOnUse">
<stop stop-color="#E69C15"/>
<stop offset="0.121249" stop-color="#FFC20F"/>
</linearGradient>
<radialGradient id="paint6_radial_193_71" cx="0" cy="0" r="1" gradientUnits="userSpaceOnUse" gradientTransform="translate(434.492 30) rotate(-91.1733) scale(24.005 58.011)">
<stop stop-color="#80C141"/>
<stop offset="0.985215" stop-color="#68A33E"/>
</radialGradient>
<linearGradient id="paint7_linear_193_71" x1="433.751" y1="26" x2="433.751" y2="143" gradientUnits="userSpaceOnUse">
<stop stop-color="#68A33E"/>
<stop offset="0.121249" stop-color="#80C141"/>
</linearGradient>
</defs>
</svg>
